<?xml version="1.0" standalone="no"?><!DOCTYPE svg PUBLIC "-//W3C//DTD SVG 1.1//EN" "http://www.w3.org/Graphics/SVG/1.1/DTD/svg11.dtd"><svg t="1574404063031" class="icon" viewBox="0 0 1892 1024" version="1.1" xmlns="http://www.w3.org/2000/svg" p-id="5242" xmlns:xlink="http://www.w3.org/1999/xlink" width="236.5" height="128"><defs><style type="text/css"></style></defs><path d="M1227.675152 270.610101h-5.352728c17.764848 0 32.155152-14.403232 32.155152-32.168081 0-17.764848-14.403232-32.168081-32.155152-32.168081h-53.617778c-17.764848 0-32.155152-14.403232-32.155151-32.16808 0-17.764848 14.403232-32.155152 32.155151-32.168081h192.995556c17.764848 0 32.155152 14.403232 32.155152 32.168081 0 17.764848-14.403232 32.168081-32.155152 32.16808-17.764848 0-32.155152 14.403232-32.155151 32.168081 0 17.764848 14.390303 32.168081 32.155151 32.168081h123.306667c17.764848 0 32.155152 14.403232 32.155151 32.168081 0 17.764848-14.403232 32.168081-32.155151 32.168081H1227.675152c-17.764848 0-32.155152-14.403232-32.155152-32.168081 0-17.764848 14.390303-32.168081 32.155152-32.168081zM841.68404 731.655758c-17.764848 0-32.168081 14.403232-32.16808 32.16808 0 17.764848 14.403232 32.168081 32.16808 32.168081h-5.365656c17.764848 0 32.155152 14.403232 32.155151 32.168081s-14.403232 32.155152-32.155151 32.168081h-128.659394c-17.764848 0-32.155152-14.403232-32.155152-32.168081s14.403232-32.168081 32.155152-32.168081c17.764848 0 32.155152-14.403232 32.155151-32.168081 0-17.764848-14.390303-32.168081-32.155151-32.16808H498.579394c-17.764848 0-32.168081 14.403232-32.168081 32.16808 0 17.764848 14.403232 32.168081 32.168081 32.168081h96.491313c17.764848 0 32.168081 14.403232 32.168081 32.168081S612.835556 860.315152 595.070707 860.315152h-241.247677c-17.764848 0-32.168081-14.403232-32.168081-32.168081s14.403232-32.168081 32.168081-32.168081h10.718384c17.764848 0 32.155152-14.403232 32.155152-32.168081 0-17.764848-14.390303-32.168081-32.155152-32.168081h-123.306667c-17.764848 0-32.168081-14.403232-32.16808-32.168081 0-17.764848 14.403232-32.168081 32.16808-32.16808H573.633939c17.764848 0 32.155152-14.403232 32.155152-32.168081 0-17.764848-14.390303-32.168081-32.155152-32.168081H520.016162c-17.764848 0-32.168081-14.403232-32.168081-32.168081 0-17.764848 14.403232-32.168081 32.168081-32.168081h241.247676c17.764848 0 32.168081 14.403232 32.168081 32.168081 0 17.764848-14.403232 32.155152-32.168081 32.168081-17.764848 0-32.155152 14.403232-32.155151 32.168081 0 17.764848 14.390303 32.168081 32.155151 32.168081h150.109091c17.764848 0 32.168081 14.403232 32.168081 32.16808 0 17.764848-14.403232 32.168081-32.168081 32.168081h-69.688889z m0 0" p-id="5243" fill="#bbad95"></path><path d="M916.725657 131.219394C721.325253 131.219394 562.915556 289.629091 562.915556 485.042424c0 195.413333 158.409697 353.82303 353.82303 353.823031 195.413333 0 353.82303-158.409697 353.82303-353.823031 0-195.413333-158.409697-353.82303-353.835959-353.82303zM903.330909 779.894949C733.090909 779.894949 595.070707 641.887677 595.070707 471.647677c0-170.252929 138.020202-308.260202 308.260202-308.260202s308.260202 138.007273 308.260202 308.260202c0 170.24-138.020202 308.247273-308.260202 308.247272z" p-id="5244" fill="#bbad95"></path><path d="M584.067879 605.220202c-64.155152 51.303434-96.995556 98.857374-83.885253 131.271111 27.177374 67.258182 241.700202 44.011313 479.159596-51.93697 237.459394-95.935354 407.932121-228.240808 380.754748-295.498989-11.093333-27.474747-53.462626-39.848081-115.872324-38.322425l7.408485 8.791919c53.333333-0.672323 89.04404 10.149495 98.495354 33.538586 24.953535 61.763232-142.868687 187.810909-374.833131 281.535354-231.964444 93.724444-440.242424 119.621818-465.19596 57.858586-11.817374-29.233131 19.56202-72.882424 80.510707-120.68202l-6.542222-6.555152z m0 0M111.579798 415.353535h-82.10101c-16.27798 0-29.478788-13.200808-29.478788-29.478788v-5.365656c0-7.822222 3.10303-15.321212 8.636768-20.84202a29.477495 29.477495 0 0 1 20.84202-8.636768h123.862626l17.402828-26.802424h-50.126868c-16.27798 0-29.478788-13.200808-29.478788-29.491717v-5.352728c0-16.27798 13.200808-29.491717 29.478788-29.491717h91.901414l18.088081-27.849697h132.92606v323.374546h71.511919v95.612121h-71.511919v118.160808h-112.717575v-118.160808h-209.105455l-24.100202-90.944647 93.970101-144.730505z m147.006061-62.060606h-3.11596c-16.316768 31.870707-36.538182 67.633131-56.746667 100.279596l-62.965656 101.831111h115.044848V512.646465c0.012929-71.511919 3.11596-115.820606 7.783435-159.353536z m0 0" p-id="5245" fill="#bbad95"></path><path d="M340.428283 249.160404c16.08404 0 24.126061 8.04202 24.12606 24.126061V530.618182c0 16.08404-8.04202 24.126061-24.12606 24.12606-16.08404 0-24.126061-8.04202-24.126061-24.12606V273.286465c0-16.08404 8.04202-24.126061 24.126061-24.126061z m0 0M1757.388283 340.29899h41.231515c7.822222 0 15.321212 3.10303 20.84202 8.636768a29.485253 29.485253 0 0 1 8.636768 20.854949v5.365657a29.485253 29.485253 0 0 1-29.478788 29.491717h-41.231515v42.886464h105.567677c7.822222 0 15.321212 3.10303 20.84202 8.636768a29.432242 29.432242 0 0 1 8.636767 20.84202v5.352728c0 7.822222-3.10303 15.321212-8.636767 20.84202a29.477495 29.477495 0 0 1-20.84202 8.636767h-105.567677v43.558788h71.511919v95.612122h-71.511919v118.160808h-112.704647v-118.160808H1435.578182l-24.100202-90.944647 212.997172-328.04202h132.92606v108.269899z m-104.934142 12.993939h-3.115959c-16.316768 31.870707-36.538182 67.633131-56.746667 100.279596l-62.965656 101.831111h115.044848V512.646465c0.012929-71.511919 3.11596-115.820606 7.783434-159.353536z m0 0" p-id="5246" fill="#bbad95"></path><path d="M1734.283636 249.160404c16.08404 0 24.126061 8.04202 24.126061 24.126061V530.618182c0 16.08404-8.04202 24.126061-24.126061 24.12606-16.08404 0-24.126061-8.04202-24.12606-24.12606V273.286465c0.012929-16.08404 8.054949-24.126061 24.12606-24.126061z m0 0M1485.006869 91.009293c0 10.537374 5.624242 20.273131 14.739394 25.535353a29.520162 29.520162 0 0 0 29.491717 0 29.489131 29.489131 0 0 0 0-51.070707 29.520162 29.520162 0 0 0-29.491717 0 29.46198 29.46198 0 0 0-14.739394 25.535354z m0 0" p-id="5247" fill="#bbad95"></path><path d="M1480.985859 109.769697c-4.57697-17.751919 2.624646-36.460606 17.945858-46.545455 15.308283-10.084848 35.348687-9.32202 49.842424 1.913536 14.493737 11.222626 20.247273 30.422626 14.325657 47.786666-5.934545 17.351111-22.238384 29.013333-40.572121 29.013334v-10.718384c14.015354 0 26.401616-9.076364 30.642424-22.432323 4.240808-13.35596-0.646465-27.914343-12.088889-36.008081a32.170667 32.170667 0 0 0-37.973333 0.620606c-11.170909 8.455758-15.592727 23.169293-10.925253 36.370101h-11.196767z m0 0M493.213737 152.669091c0 13.407677 7.149899 25.793939 18.760404 32.504242a37.507879 37.507879 0 0 0 37.533738 0 37.540202 37.540202 0 0 0 0-65.008485 37.569939 37.569939 0 0 0-37.533738 0 37.507879 37.507879 0 0 0-18.760404 32.504243z m0 0" p-id="5248" fill="#bbad95"></path><path d="M600.436364 141.937778h-10.731313c0-22.264242-15.243636-41.645253-36.874344-46.894546-21.643636-5.249293-44.06303 4.990707-54.264242 24.785455-10.201212 19.794747-5.533737 43.998384 11.300202 58.582626 16.833939 14.584242 41.451313 15.747879 59.591111 2.831515l6.994747 8.171313a58.689939 58.689939 0 0 1-34.999596 11.494142c-32.568889 0-58.970505-26.401616-58.970505-58.970505 0-32.568889 26.401616-58.970505 58.970505-58.970505 32.581818 0 58.983434 26.401616 58.983435 58.970505z m0 0M1270.561616 742.374141c0 9.580606 5.107071 18.424242 13.407677 23.208081a26.758465 26.758465 0 0 0 26.802424 0 26.817939 26.817939 0 0 0 13.407677-23.208081c0-9.580606-5.107071-18.424242-13.407677-23.20808-8.287677-4.783838-18.514747-4.783838-26.802424 0a26.776566 26.776566 0 0 0-13.407677 23.20808z m0 0" p-id="5249" fill="#bbad95"></path><path d="M1268.311919 763.823838c-7.072323-17.480404-1.900606-37.533737 12.761212-49.402828 14.648889-11.869091 35.335758-12.787071 50.980202-2.236768 15.631515 10.537374 22.548687 30.060606 17.040808 48.09697a42.877414 42.877414 0 0 1-41.011717 30.35798v-10.718384c14.558384 0 27.306667-9.774545 31.069091-23.841616a32.164202 32.164202 0 0 0-14.98505-36.176162c-12.606061-7.279192-28.534949-5.184646-38.826667 5.107071-10.291717 10.291717-12.386263 26.220606-5.107071 38.826667h-11.920808z m0 0M718.377374 53.488485c0 7.395556 5.999192 13.394747 13.394747 13.394747 7.408485 0 13.407677-5.999192 13.407677-13.394747 0-7.408485-5.999192-13.407677-13.407677-13.407677-7.395556 0-13.394747 5.999192-13.394747 13.407677z m0 0M1157.973333 380.509091c0 7.408485 5.999192 13.407677 13.407677 13.407677 7.395556 0 13.394747-5.999192 13.394748-13.407677 0-7.408485-5.999192-13.407677-13.394748-13.407677s-13.407677 5.999192-13.407677 13.407677z m0 0M852.402424 777.218586c0 6.697374 3.568485 12.903434 9.373738 16.252121a18.796606 18.796606 0 0 0 18.773333 0c5.805253-3.348687 9.373737-9.554747 9.373737-16.252121 0-6.710303-3.581414-12.903434-9.373737-16.252121a18.796606 18.796606 0 0 0-18.773333 0 18.764283 18.764283 0 0 0-9.373738 16.252121z m0 0M1501.090909 962.172121c0 11.843232 9.606465 21.449697 21.449697 21.449697s21.449697-9.606465 21.449697-21.449697-9.606465-21.449697-21.449697-21.449697c-11.856162 0.012929-21.449697 9.606465-21.449697 21.449697z m0 0M788.066263 404.635152c-38.490505 0-69.688889-31.198384-69.688889-69.701819 0-38.490505 31.198384-69.688889 69.688889-69.688889s69.688889 31.198384 69.688889 69.688889c0.012929 38.490505-31.198384 69.701818-69.688889 69.701819z m0-10.731314c32.568889 0 58.970505-26.401616 58.970505-58.970505 0-32.568889-26.401616-58.970505-58.970505-58.970505-32.568889 0-58.970505 26.401616-58.970505 58.970505 0 32.568889 26.401616 58.970505 58.970505 58.970505z m26.789495 50.411314a113.320081 113.320081 0 0 1-26.789495 3.206464c-35.865859 0-67.814141-16.782222-88.436364-42.899394l8.029091-7.136969c18.631111 23.932121 47.72202 39.31798 80.407273 39.317979 8.442828 0 16.652929-1.034343 24.48808-2.960808l2.301415 10.472728z m26.647272-10.265859l-4.20202-9.929697c31.379394-17.351111 52.635152-50.786263 52.635152-89.186263 0-11.170909-1.797172-21.915152-5.12-31.961212l10.395151-2.728081c3.620202 11.209697 5.456162 22.910707 5.456162 34.689293-0.012929 42.847677-23.945051 80.09697-59.164445 99.11596z m104.714344 120.68202c-12.450909 0-23.945051-6.645657-30.17697-17.428687a34.870303 34.870303 0 0 1 0-34.844444 34.853495 34.853495 0 0 1 30.17697-17.428687c19.251717 0 34.844444 15.605657 34.844444 34.844444 0 19.264646-15.592727 34.857374-34.844444 34.857374z m0-10.718384a24.124768 24.124768 0 1 0 0-48.252121c-13.330101 0-24.126061 10.79596-24.126061 24.126061s10.79596 24.126061 24.126061 24.12606z m72.326464-26.802424h-10.718383a61.446465 61.446465 0 0 0-17.661415-40.559192l8.171314-6.968889c12.373333 12.812929 19.56202 29.737374 20.208484 47.528081z m-1.189495 16.08404c-5.042424 26.673131-24.565657 48.290909-50.592323 56.022627l-2.417778-10.472728a61.768404 61.768404 0 0 0 42.07192-45.549899h10.938181z m-293.611313 75.054546c-17.234747 0-33.176566-9.192727-41.800404-24.126061a48.293495 48.293495 0 0 1 0-48.252121 48.258586 48.258586 0 0 1 41.800404-24.126061c26.647273 0 48.239192 21.604848 48.239192 48.252122s-21.604848 48.252121-48.239192 48.252121z m0-10.718384c13.407677 0 25.793939-7.149899 32.504243-18.760404a37.507879 37.507879 0 0 0 0-37.533737 37.540202 37.540202 0 0 0-32.504243-18.760404c-20.725657 0-37.520808 16.808081-37.520808 37.533737 0 20.712727 16.795152 37.507879 37.520808 37.520808z m-78.105858 9.477172l8.740202-6.283637c13.963636 23.751111 39.796364 39.692929 69.352727 39.69293 20.169697 0 38.593939-7.421414 52.712727-19.691313l7.072324 8.054949a90.85802 90.85802 0 0 1-59.79798 22.354748c-33.111919 0-62.125253-17.687273-78.08-44.127677z m520.378182 44.127677c-10.537374 0-20.273131-5.624242-25.535354-14.739394a29.496889 29.496889 0 0 1 0-29.478788c5.262222-9.128081 14.99798-14.739394 25.535354-14.739394 16.290909 0 29.478788 13.200808 29.478787 29.478788 0.012929 16.27798-13.187879 29.478788-29.478787 29.478788z m0-10.718384c10.369293 0 18.760404-8.40404 18.760404-18.760404 0-10.369293-8.40404-18.760404-18.760404-18.760404-10.369293 0-18.760404 8.40404-18.760405 18.760404s8.40404 18.760404 18.760405 18.760404z m-60.53495 9.994343l9.852121-4.253737a56.294141 56.294141 0 0 0 50.695758 31.793131c5.197576 0 10.214141-0.698182 14.98505-2.01697l3.232324 10.227071a66.840566 66.840566 0 0 1-18.230303 2.508283c-26.711919-0.012929-49.777778-15.644444-60.53495-38.257778z m0 0" p-id="5250" fill="#bbad95"></path></svg>